{"asset":{"version":"2.0","generator":"THREE.GLTFExporter"},"scenes":[{"nodes":[0],"name":"AuxScene"}],"scene":0,"nodes":[{"mesh":0}],"bufferViews":[{"buffer":0,"byteOffset":0,"byteLength":9684,"target":34962,"byteStride":12},{"buffer":0,"byteOffset":9684,"byteLength":9684,"target":34962,"byteStride":12}],"buffers":[{"byteLength":19368,"uri":"data:application/octet-stream;base64,"}],"accessors":[{"bufferView":0,"componentType":5126,"count":807,"max":[39.10000228881836,1.100000023841858,-0.6999989748001099],"min":[0.699999988079071,0.5,-28],"type":"VEC3"},{"bufferView":1,"componentType":5126,"count":807,"max":[0.4601418375968933,1,0.21693068742752075],"min":[-0.4332723915576935,0.8819374442100525,-0.4061380922794342],"type":"VEC3"}],"materials":[{"pbrMetallicRoughness":{"baseColorFactor":[0.5019607843137255,0.5019607843137255,0.5019607843137255,1],"metallicFactor":0,"roughnessFactor":1}}],"meshes":[{"primitives":[{"mode":4,"attributes":{"POSITION":0,"NORMAL":1},"material":0}]}]}